<svg width="798" height="265" viewBox="0 0 798 265" fill="none" xmlns="http://www.w3.org/2000/svg">
<mask id="path-1-outside-1_39_9545" maskUnits="userSpaceOnUse" x="-0.569336" y="-0.950562" width="799" height="266" fill="black">
<rect fill="white" x="-0.569336" y="-0.950562" width="799" height="266"/>
<path d="M102.193 199.873H196.64V258.049H1.99971V214.596L75.6184 150.315C122.663 109.016 130.204 101.475 130.204 86.3922C130.204 74.1822 122.663 60.1767 99.6792 60.1767C78.8505 60.1767 68.7952 71.6684 66.2814 94.2927H4.87264C7.02733 37.5525 47.2483 1.99999 102.552 1.99999C159.292 1.99999 191.972 40.0662 191.972 83.5192C191.972 122.663 165.756 144.569 126.254 179.044L102.911 199.514L102.193 199.873ZM331.502 1.99999C401.171 1.99999 442.828 54.0718 442.828 132.359C442.828 210.646 401.171 262.718 331.502 262.718C261.834 262.718 220.176 210.646 220.176 132.359C220.176 54.0718 261.834 1.99999 331.502 1.99999ZM331.502 204.541C367.055 204.541 381.06 178.685 381.06 132.359C381.06 86.0331 367.055 60.1767 331.502 60.1767C295.95 60.1767 281.944 86.0331 281.944 132.359C281.944 178.685 295.95 204.541 331.502 204.541ZM563.011 199.873H657.459V258.049H462.818V214.596L536.437 150.315C583.481 109.016 591.022 101.475 591.022 86.3922C591.022 74.1822 583.481 60.1767 560.497 60.1767C539.669 60.1767 529.613 71.6684 527.1 94.2927H465.691C467.846 37.5525 508.067 1.99999 563.37 1.99999C620.111 1.99999 652.79 40.0662 652.79 83.5192C652.79 122.663 626.575 144.569 587.072 179.044L563.729 199.514L563.011 199.873ZM768.176 6.6685H795.828V258.049H734.778V77.7734L679.115 101.116V41.1436L768.176 6.6685Z"/>
</mask>
<path d="M102.193 199.873L101.299 198.084L102.193 201.873V199.873ZM196.64 199.873H198.64V197.873H196.64V199.873ZM196.64 258.049V260.049H198.64V258.049H196.64ZM1.99971 258.049H-0.000289917V260.049H1.99971V258.049ZM1.99971 214.596L0.684262 213.09L-0.000289917 213.688V214.596H1.99971ZM75.6184 150.315L76.9339 151.821L76.9379 151.818L75.6184 150.315ZM66.2814 94.2927V96.2927H68.0715L68.2692 94.5136L66.2814 94.2927ZM4.87264 94.2927L2.87408 94.2168L2.79524 96.2927H4.87264V94.2927ZM126.254 179.044L124.939 177.537L124.935 177.54L126.254 179.044ZM102.911 199.514L103.806 201.302L104.036 201.187L104.23 201.017L102.911 199.514ZM102.193 199.873V201.873H196.64V199.873V197.873H102.193V199.873ZM196.64 199.873H194.64V258.049H196.64H198.64V199.873H196.64ZM196.64 258.049V256.049H1.99971V258.049V260.049H196.64V258.049ZM1.99971 258.049H3.99971V214.596H1.99971H-0.000289917V258.049H1.99971ZM1.99971 214.596L3.31516 216.103L76.9339 151.821L75.6184 150.315L74.303 148.808L0.684262 213.09L1.99971 214.596ZM75.6184 150.315L76.9379 151.818C100.413 131.209 114.186 118.895 122.062 109.835C126.021 105.28 128.582 101.449 130.138 97.7025C131.706 93.9247 132.204 90.3503 132.204 86.3922H130.204H128.204C128.204 89.9755 127.759 92.9998 126.443 96.1687C125.115 99.369 122.85 102.832 119.043 107.211C111.388 116.017 97.8676 128.122 74.299 148.812L75.6184 150.315ZM130.204 86.3922H132.204C132.204 79.8983 130.199 72.8103 125.013 67.331C119.798 61.8205 111.593 58.1767 99.6792 58.1767V60.1767V62.1767C110.748 62.1767 117.807 65.5358 122.108 70.0805C126.438 74.6564 128.204 80.6761 128.204 86.3922H130.204ZM99.6792 60.1767V58.1767C88.8843 58.1767 80.5746 61.1675 74.6642 67.371C68.8058 73.5199 65.5741 82.5479 64.2936 94.0719L66.2814 94.2927L68.2692 94.5136C69.5025 83.4132 72.5553 75.3833 77.5602 70.1302C82.513 64.9318 89.6454 62.1767 99.6792 62.1767V60.1767ZM66.2814 94.2927V92.2927H4.87264V94.2927V96.2927H66.2814V94.2927ZM4.87264 94.2927L6.87119 94.3686C7.93055 66.4724 18.3319 43.9191 35.1412 28.3354C51.9593 12.7436 75.3324 3.99999 102.552 3.99999V1.99999V-6.19888e-06C74.468 -6.19888e-06 50.0787 9.03257 32.4217 25.4021C14.7559 41.7797 3.96942 65.3728 2.87408 94.2168L4.87264 94.2927ZM102.552 1.99999V3.99999C130.459 3.99999 152.292 13.3514 167.14 27.8936C181.997 42.4448 189.972 62.2999 189.972 83.5192H191.972H193.972C193.972 61.2856 185.607 40.3811 169.939 25.0359C154.262 9.68173 131.386 -6.19888e-06 102.552 -6.19888e-06V1.99999ZM191.972 83.5192H189.972C189.972 121.577 164.662 142.87 124.939 177.537L126.254 179.044L127.569 180.551C166.851 146.268 193.972 123.749 193.972 83.5192H191.972ZM126.254 179.044L124.935 177.54L101.593 198.01L102.911 199.514L104.23 201.017L127.572 180.548L126.254 179.044ZM102.911 199.514L102.017 197.725L101.299 198.084L102.193 199.873L103.087 201.662L103.806 201.302L102.911 199.514ZM331.502 1.99999V3.99999C365.797 3.99999 393.048 16.7946 411.758 39.1069C430.503 61.4599 440.828 93.5517 440.828 132.359H442.828H444.828C444.828 92.8791 434.324 59.7913 414.823 36.5367C395.288 13.2413 366.876 -6.19888e-06 331.502 -6.19888e-06V1.99999ZM442.828 132.359H440.828C440.828 171.166 430.503 203.258 411.758 225.611C393.048 247.923 365.797 260.718 331.502 260.718V262.718V264.718C366.876 264.718 395.288 251.477 414.823 228.181C434.324 204.927 444.828 171.839 444.828 132.359H442.828ZM331.502 262.718V260.718C297.207 260.718 269.957 247.923 251.246 225.611C232.501 203.258 222.176 171.166 222.176 132.359H220.176H218.176C218.176 171.839 228.68 204.927 248.181 228.181C267.716 251.477 296.129 264.718 331.502 264.718V262.718ZM220.176 132.359H222.176C222.176 93.5517 232.501 61.4599 251.246 39.1069C269.957 16.7946 297.207 3.99999 331.502 3.99999V1.99999V-6.19888e-06C296.129 -6.19888e-06 267.716 13.2413 248.181 36.5367C228.68 59.7913 218.176 92.8791 218.176 132.359H220.176ZM331.502 204.541V206.541C349.846 206.541 362.921 199.821 371.292 186.91C379.553 174.168 383.06 155.65 383.06 132.359H381.06H379.06C379.06 155.394 375.564 172.967 367.935 184.734C360.415 196.334 348.711 202.541 331.502 202.541V204.541ZM381.06 132.359H383.06C383.06 109.068 379.553 90.5503 371.292 77.8076C362.921 64.8973 349.846 58.1767 331.502 58.1767V60.1767V62.1767C348.711 62.1767 360.415 68.3843 367.935 79.9837C375.564 91.7506 379.06 109.324 379.06 132.359H381.06ZM331.502 60.1767V58.1767C313.159 58.1767 300.083 64.8973 291.713 77.8076C283.451 90.5503 279.944 109.068 279.944 132.359H281.944H283.944C283.944 109.324 287.44 91.7506 295.069 79.9837C302.59 68.3843 314.294 62.1767 331.502 62.1767V60.1767ZM281.944 132.359H279.944C279.944 155.65 283.451 174.168 291.713 186.91C300.083 199.821 313.159 206.541 331.502 206.541V204.541V202.541C314.294 202.541 302.59 196.334 295.069 184.734C287.44 172.967 283.944 155.394 283.944 132.359H281.944ZM563.011 199.873L562.117 198.084L563.011 201.873V199.873ZM657.459 199.873H659.459V197.873H657.459V199.873ZM657.459 258.049V260.049H659.459V258.049H657.459ZM462.818 258.049H460.818V260.049H462.818V258.049ZM462.818 214.596L461.503 213.09L460.818 213.688V214.596H462.818ZM536.437 150.315L537.752 151.821L537.756 151.818L536.437 150.315ZM527.1 94.2927V96.2927H528.89L529.087 94.5136L527.1 94.2927ZM465.691 94.2927L463.692 94.2168L463.614 96.2927H465.691V94.2927ZM587.072 179.044L585.757 177.537L585.753 177.54L587.072 179.044ZM563.729 199.514L564.624 201.302L564.854 201.187L565.048 201.017L563.729 199.514ZM563.011 199.873V201.873H657.459V199.873V197.873H563.011V199.873ZM657.459 199.873H655.459V258.049H657.459H659.459V199.873H657.459ZM657.459 258.049V256.049H462.818V258.049V260.049H657.459V258.049ZM462.818 258.049H464.818V214.596H462.818H460.818V258.049H462.818ZM462.818 214.596L464.133 216.103L537.752 151.821L536.437 150.315L535.121 148.808L461.503 213.09L462.818 214.596ZM536.437 150.315L537.756 151.818C561.232 131.209 575.004 118.895 582.88 109.835C586.84 105.28 589.401 101.449 590.956 97.7025C592.524 93.9247 593.022 90.3503 593.022 86.3922H591.022H589.022C589.022 89.9755 588.577 92.9998 587.262 96.1687C585.933 99.369 583.668 102.832 579.862 107.211C572.206 116.017 558.686 128.122 535.117 148.812L536.437 150.315ZM591.022 86.3922H593.022C593.022 79.8983 591.017 72.8103 585.831 67.331C580.616 61.8205 572.412 58.1767 560.497 58.1767V60.1767V62.1767C571.567 62.1767 578.625 65.5358 582.926 70.0805C587.257 74.6564 589.022 80.6761 589.022 86.3922H591.022ZM560.497 60.1767V58.1767C549.703 58.1767 541.393 61.1675 535.482 67.371C529.624 73.5199 526.392 82.5479 525.112 94.0719L527.1 94.2927L529.087 94.5136C530.321 83.4132 533.374 75.3833 538.378 70.1302C543.331 64.9318 550.464 62.1767 560.497 62.1767V60.1767ZM527.1 94.2927V92.2927H465.691V94.2927V96.2927H527.1V94.2927ZM465.691 94.2927L467.689 94.3686C468.749 66.4724 479.15 43.9191 495.959 28.3354C512.778 12.7436 536.151 3.99999 563.37 3.99999V1.99999V-6.19888e-06C535.286 -6.19888e-06 510.897 9.03257 493.24 25.4021C475.574 41.7797 464.788 65.3728 463.692 94.2168L465.691 94.2927ZM563.37 1.99999V3.99999C591.277 3.99999 613.111 13.3514 627.958 27.8936C642.815 42.4448 650.79 62.2999 650.79 83.5192H652.79H654.79C654.79 61.2856 646.425 40.3811 630.757 25.0359C615.08 9.68173 592.204 -6.19888e-06 563.37 -6.19888e-06V1.99999ZM652.79 83.5192H650.79C650.79 121.577 625.48 142.87 585.757 177.537L587.072 179.044L588.387 180.551C627.669 146.268 654.79 123.749 654.79 83.5192H652.79ZM587.072 179.044L585.753 177.54L562.411 198.01L563.729 199.514L565.048 201.017L588.391 180.548L587.072 179.044ZM563.729 199.514L562.835 197.725L562.117 198.084L563.011 199.873L563.906 201.662L564.624 201.302L563.729 199.514ZM768.176 6.6685V4.6685H767.802L767.454 4.80336L768.176 6.6685ZM795.828 6.6685H797.828V4.6685H795.828V6.6685ZM795.828 258.049V260.049H797.828V258.049H795.828ZM734.778 258.049H732.778V260.049H734.778V258.049ZM734.778 77.7734H736.778V74.7659L734.004 75.929L734.778 77.7734ZM679.115 101.116H677.115V104.123L679.888 102.96L679.115 101.116ZM679.115 41.1436L678.393 39.2785L677.115 39.7732V41.1436H679.115ZM768.176 6.6685V8.6685H795.828V6.6685V4.6685H768.176V6.6685ZM795.828 6.6685H793.828V258.049H795.828H797.828V6.6685H795.828ZM795.828 258.049V256.049H734.778V258.049V260.049H795.828V258.049ZM734.778 258.049H736.778V77.7734H734.778H732.778V258.049H734.778ZM734.778 77.7734L734.004 75.929L678.341 99.2715L679.115 101.116L679.888 102.96L735.551 79.6178L734.778 77.7734ZM679.115 101.116H681.115V41.1436H679.115H677.115V101.116H679.115ZM679.115 41.1436L679.837 43.0087L768.898 8.53364L768.176 6.6685L767.454 4.80336L678.393 39.2785L679.115 41.1436Z" fill="url(#paint0_linear_39_9545)" mask="url(#path-1-outside-1_39_9545)"/>
<defs>
<linearGradient id="paint0_linear_39_9545" x1="715.646" y1="258.049" x2="714.978" y2="-24.4993" gradientUnits="userSpaceOnUse">
<stop/>
<stop offset="1" stop-color="white" stop-opacity="0"/>
</linearGradient>
</defs>
</svg>
