<svg width="881" height="265" viewBox="0 0 881 265" fill="none" xmlns="http://www.w3.org/2000/svg">
<mask id="path-1-outside-1_39_10064" maskUnits="userSpaceOnUse" x="-0.569336" y="-0.950439" width="881" height="266" fill="black">
<rect fill="white" x="-0.569336" y="-0.950439" width="881" height="266"/>
<path d="M102.193 199.873H196.64V258.05H1.99971V214.597L75.6184 150.315C122.663 109.017 130.204 101.475 130.204 86.3923C130.204 74.1824 122.663 60.1769 99.6792 60.1769C78.8505 60.1769 68.7952 71.6685 66.2814 94.2928H4.87264C7.02733 37.5526 47.2483 2.00012 102.552 2.00012C159.292 2.00012 191.972 40.0664 191.972 83.5194C191.972 122.663 165.756 144.569 126.254 179.044L102.911 199.514L102.193 199.873ZM331.502 2.00012C401.171 2.00012 442.828 54.0719 442.828 132.359C442.828 210.646 401.171 262.718 331.502 262.718C261.834 262.718 220.176 210.646 220.176 132.359C220.176 54.0719 261.834 2.00012 331.502 2.00012ZM331.502 204.541C367.055 204.541 381.06 178.685 381.06 132.359C381.06 86.0332 367.055 60.1769 331.502 60.1769C295.95 60.1769 281.944 86.0332 281.944 132.359C281.944 178.685 295.95 204.541 331.502 204.541ZM563.011 199.873H657.459V258.05H462.818V214.597L536.437 150.315C583.481 109.017 591.022 101.475 591.022 86.3923C591.022 74.1824 583.481 60.1769 560.497 60.1769C539.669 60.1769 529.613 71.6685 527.1 94.2928H465.691C467.846 37.5526 508.067 2.00012 563.37 2.00012C620.111 2.00012 652.79 40.0664 652.79 83.5194C652.79 122.663 626.575 144.569 587.072 179.044L563.729 199.514L563.011 199.873ZM844.308 126.613C865.855 136.309 878.424 157.138 878.424 184.431C878.424 234.707 840.358 262.718 782.899 262.718C729.032 262.718 685.579 234.348 682.706 176.889H744.474C747.347 197.359 760.275 204.9 782.181 204.9C808.397 204.9 816.656 194.486 816.656 178.326C816.656 164.32 809.474 157.497 785.413 157.497H752.375V104.348H779.667C796.187 104.348 809.474 101.116 809.474 84.9558C809.474 71.6685 802.651 59.8177 777.872 59.8177C760.634 59.8177 749.502 66.2818 746.27 85.3149H684.502C688.093 31.4476 728.673 2.00012 779.667 2.00012C834.253 2.00012 871.242 33.9614 871.242 76.6962C871.242 97.884 861.187 116.558 844.308 126.613Z"/>
</mask>
<path d="M102.193 199.873L101.299 198.084L102.193 201.873V199.873ZM196.64 199.873H198.64V197.873H196.64V199.873ZM196.64 258.05V260.05H198.64V258.05H196.64ZM1.99971 258.05H-0.000289917V260.05H1.99971V258.05ZM1.99971 214.597L0.684262 213.09L-0.000289917 213.688V214.597H1.99971ZM75.6184 150.315L76.9339 151.821L76.9379 151.818L75.6184 150.315ZM66.2814 94.2928V96.2928H68.0715L68.2692 94.5137L66.2814 94.2928ZM4.87264 94.2928L2.87408 94.2169L2.79524 96.2928H4.87264V94.2928ZM126.254 179.044L124.939 177.537L124.935 177.54L126.254 179.044ZM102.911 199.514L103.806 201.303L104.036 201.187L104.23 201.017L102.911 199.514ZM102.193 199.873V201.873H196.64V199.873V197.873H102.193V199.873ZM196.64 199.873H194.64V258.05H196.64H198.64V199.873H196.64ZM196.64 258.05V256.05H1.99971V258.05V260.05H196.64V258.05ZM1.99971 258.05H3.99971V214.597H1.99971H-0.000289917V258.05H1.99971ZM1.99971 214.597L3.31516 216.103L76.9339 151.821L75.6184 150.315L74.303 148.808L0.684262 213.09L1.99971 214.597ZM75.6184 150.315L76.9379 151.818C100.413 131.21 114.186 118.895 122.062 109.835C126.021 105.281 128.582 101.449 130.138 97.7026C131.706 93.9248 132.204 90.3504 132.204 86.3923H130.204H128.204C128.204 89.9756 127.759 93 126.443 96.1688C125.115 99.3691 122.85 102.832 119.043 107.211C111.388 116.017 97.8676 128.122 74.299 148.812L75.6184 150.315ZM130.204 86.3923H132.204C132.204 79.8984 130.199 72.8105 125.013 67.3311C119.798 61.8206 111.593 58.1769 99.6792 58.1769V60.1769V62.1769C110.748 62.1769 117.807 65.5359 122.108 70.0806C126.438 74.6565 128.204 80.6762 128.204 86.3923H130.204ZM99.6792 60.1769V58.1769C88.8843 58.1769 80.5746 61.1677 74.6642 67.3711C68.8058 73.52 65.5741 82.548 64.2936 94.072L66.2814 94.2928L68.2692 94.5137C69.5025 83.4133 72.5553 75.3834 77.5602 70.1303C82.513 64.9319 89.6454 62.1769 99.6792 62.1769V60.1769ZM66.2814 94.2928V92.2928H4.87264V94.2928V96.2928H66.2814V94.2928ZM4.87264 94.2928L6.87119 94.3687C7.93055 66.4725 18.3319 43.9192 35.1412 28.3356C51.9593 12.7438 75.3324 4.00012 102.552 4.00012V2.00012V0.000115871C74.468 0.000115871 50.0787 9.03269 32.4217 25.4022C14.7559 41.7799 3.96942 65.3729 2.87408 94.2169L4.87264 94.2928ZM102.552 2.00012V4.00012C130.459 4.00012 152.292 13.3515 167.14 27.8937C181.997 42.4449 189.972 62.3 189.972 83.5194H191.972H193.972C193.972 61.2857 185.607 40.3812 169.939 25.036C154.262 9.68185 131.386 0.000115871 102.552 0.000115871V2.00012ZM191.972 83.5194H189.972C189.972 121.577 164.662 142.87 124.939 177.537L126.254 179.044L127.569 180.551C166.851 146.268 193.972 123.749 193.972 83.5194H191.972ZM126.254 179.044L124.935 177.54L101.593 198.01L102.911 199.514L104.23 201.017L127.572 180.548L126.254 179.044ZM102.911 199.514L102.017 197.725L101.299 198.084L102.193 199.873L103.087 201.662L103.806 201.303L102.911 199.514ZM331.502 2.00012V4.00012C365.797 4.00012 393.048 16.7947 411.758 39.107C430.503 61.4601 440.828 93.5518 440.828 132.359H442.828H444.828C444.828 92.8792 434.324 59.7914 414.823 36.5368C395.288 13.2414 366.876 0.000115871 331.502 0.000115871V2.00012ZM442.828 132.359H440.828C440.828 171.166 430.503 203.258 411.758 225.611C393.048 247.923 365.797 260.718 331.502 260.718V262.718V264.718C366.876 264.718 395.288 251.477 414.823 228.181C434.324 204.927 444.828 171.839 444.828 132.359H442.828ZM331.502 262.718V260.718C297.207 260.718 269.957 247.923 251.246 225.611C232.501 203.258 222.176 171.166 222.176 132.359H220.176H218.176C218.176 171.839 228.68 204.927 248.181 228.181C267.716 251.477 296.129 264.718 331.502 264.718V262.718ZM220.176 132.359H222.176C222.176 93.5518 232.501 61.4601 251.246 39.107C269.957 16.7947 297.207 4.00012 331.502 4.00012V2.00012V0.000115871C296.129 0.000115871 267.716 13.2414 248.181 36.5368C228.68 59.7914 218.176 92.8792 218.176 132.359H220.176ZM331.502 204.541V206.541C349.846 206.541 362.921 199.821 371.292 186.91C379.553 174.168 383.06 155.65 383.06 132.359H381.06H379.06C379.06 155.394 375.564 172.967 367.935 184.734C360.415 196.334 348.711 202.541 331.502 202.541V204.541ZM381.06 132.359H383.06C383.06 109.068 379.553 90.5504 371.292 77.8077C362.921 64.8975 349.846 58.1769 331.502 58.1769V60.1769V62.1769C348.711 62.1769 360.415 68.3844 367.935 79.9838C375.564 91.7508 379.06 109.325 379.06 132.359H381.06ZM331.502 60.1769V58.1769C313.159 58.1769 300.083 64.8975 291.713 77.8077C283.451 90.5504 279.944 109.068 279.944 132.359H281.944H283.944C283.944 109.325 287.44 91.7508 295.069 79.9838C302.59 68.3844 314.294 62.1769 331.502 62.1769V60.1769ZM281.944 132.359H279.944C279.944 155.65 283.451 174.168 291.713 186.91C300.083 199.821 313.159 206.541 331.502 206.541V204.541V202.541C314.294 202.541 302.59 196.334 295.069 184.734C287.44 172.967 283.944 155.394 283.944 132.359H281.944ZM563.011 199.873L562.117 198.084L563.011 201.873V199.873ZM657.459 199.873H659.459V197.873H657.459V199.873ZM657.459 258.05V260.05H659.459V258.05H657.459ZM462.818 258.05H460.818V260.05H462.818V258.05ZM462.818 214.597L461.503 213.09L460.818 213.688V214.597H462.818ZM536.437 150.315L537.752 151.821L537.756 151.818L536.437 150.315ZM527.1 94.2928V96.2928H528.89L529.087 94.5137L527.1 94.2928ZM465.691 94.2928L463.692 94.2169L463.614 96.2928H465.691V94.2928ZM587.072 179.044L585.757 177.537L585.753 177.54L587.072 179.044ZM563.729 199.514L564.624 201.303L564.854 201.187L565.048 201.017L563.729 199.514ZM563.011 199.873V201.873H657.459V199.873V197.873H563.011V199.873ZM657.459 199.873H655.459V258.05H657.459H659.459V199.873H657.459ZM657.459 258.05V256.05H462.818V258.05V260.05H657.459V258.05ZM462.818 258.05H464.818V214.597H462.818H460.818V258.05H462.818ZM462.818 214.597L464.133 216.103L537.752 151.821L536.437 150.315L535.121 148.808L461.503 213.09L462.818 214.597ZM536.437 150.315L537.756 151.818C561.232 131.21 575.004 118.895 582.88 109.835C586.84 105.281 589.401 101.449 590.956 97.7026C592.524 93.9248 593.022 90.3504 593.022 86.3923H591.022H589.022C589.022 89.9756 588.577 93 587.262 96.1688C585.933 99.3691 583.668 102.832 579.862 107.211C572.206 116.017 558.686 128.122 535.117 148.812L536.437 150.315ZM591.022 86.3923H593.022C593.022 79.8984 591.017 72.8105 585.831 67.3311C580.616 61.8206 572.412 58.1769 560.497 58.1769V60.1769V62.1769C571.567 62.1769 578.625 65.5359 582.926 70.0806C587.257 74.6565 589.022 80.6762 589.022 86.3923H591.022ZM560.497 60.1769V58.1769C549.703 58.1769 541.393 61.1677 535.482 67.3711C529.624 73.52 526.392 82.548 525.112 94.072L527.1 94.2928L529.087 94.5137C530.321 83.4133 533.374 75.3834 538.378 70.1303C543.331 64.9319 550.464 62.1769 560.497 62.1769V60.1769ZM527.1 94.2928V92.2928H465.691V94.2928V96.2928H527.1V94.2928ZM465.691 94.2928L467.689 94.3687C468.749 66.4725 479.15 43.9192 495.959 28.3356C512.778 12.7438 536.151 4.00012 563.37 4.00012V2.00012V0.000115871C535.286 0.000115871 510.897 9.03269 493.24 25.4022C475.574 41.7799 464.788 65.3729 463.692 94.2169L465.691 94.2928ZM563.37 2.00012V4.00012C591.277 4.00012 613.111 13.3515 627.958 27.8937C642.815 42.4449 650.79 62.3 650.79 83.5194H652.79H654.79C654.79 61.2857 646.425 40.3812 630.757 25.036C615.08 9.68185 592.204 0.000115871 563.37 0.000115871V2.00012ZM652.79 83.5194H650.79C650.79 121.577 625.48 142.87 585.757 177.537L587.072 179.044L588.387 180.551C627.669 146.268 654.79 123.749 654.79 83.5194H652.79ZM587.072 179.044L585.753 177.54L562.411 198.01L563.729 199.514L565.048 201.017L588.391 180.548L587.072 179.044ZM563.729 199.514L562.835 197.725L562.117 198.084L563.011 199.873L563.906 201.662L564.624 201.303L563.729 199.514ZM844.308 126.613L843.285 124.895L839.985 126.861L843.487 128.437L844.308 126.613ZM682.706 176.889V174.889H680.604L680.709 176.989L682.706 176.889ZM744.474 176.889L746.455 176.611L746.213 174.889H744.474V176.889ZM752.375 157.497H750.375V159.497H752.375V157.497ZM752.375 104.348V102.348H750.375V104.348H752.375ZM746.27 85.3149V87.3149H747.959L748.241 85.6498L746.27 85.3149ZM684.502 85.3149L682.506 85.1819L682.364 87.3149H684.502V85.3149ZM844.308 126.613L843.487 128.437C864.209 137.762 876.424 157.8 876.424 184.431H878.424H880.424C880.424 156.476 867.501 134.857 845.129 124.789L844.308 126.613ZM878.424 184.431H876.424C876.424 209.013 867.145 227.987 850.963 240.863C834.723 253.785 811.331 260.718 782.899 260.718V262.718V264.718C811.926 264.718 836.296 257.645 853.454 243.993C870.67 230.294 880.424 210.125 880.424 184.431H878.424ZM782.899 262.718V260.718C756.297 260.718 732.442 253.712 714.924 239.785C697.452 225.894 686.114 204.988 684.704 176.79L682.706 176.889L680.709 176.989C682.172 206.249 693.997 228.257 712.435 242.916C730.829 257.539 755.635 264.718 782.899 264.718V262.718ZM682.706 176.889V178.889H744.474V176.889V174.889H682.706V176.889ZM744.474 176.889L742.493 177.167C743.986 187.801 748.148 195.368 755.041 200.208C761.856 204.993 771.046 206.9 782.181 206.9V204.9V202.9C771.41 202.9 763.183 201.037 757.339 196.934C751.574 192.886 747.835 186.447 746.455 176.611L744.474 176.889ZM782.181 204.9V206.9C795.49 206.9 804.686 204.268 810.558 199.185C816.499 194.043 818.656 186.734 818.656 178.326H816.656H814.656C814.656 186.078 812.683 192.056 807.941 196.161C803.129 200.326 795.088 202.9 782.181 202.9V204.9ZM816.656 178.326H818.656C818.656 170.977 816.753 165.014 811.226 161.036C805.885 157.193 797.527 155.497 785.413 155.497V157.497V159.497C797.36 159.497 804.623 161.213 808.889 164.283C812.969 167.218 814.656 171.67 814.656 178.326H816.656ZM785.413 157.497V155.497H752.375V157.497V159.497H785.413V157.497ZM752.375 157.497H754.375V104.348H752.375H750.375V157.497H752.375ZM752.375 104.348V106.348H779.667V104.348V102.348H752.375V104.348ZM779.667 104.348V106.348C787.969 106.348 795.847 105.553 801.695 102.483C804.665 100.923 807.145 98.7612 808.867 95.8119C810.585 92.8695 811.474 89.2724 811.474 84.9558H809.474H807.474C807.474 88.7193 806.702 91.5864 805.413 93.795C804.127 95.9968 802.252 97.6726 799.836 98.9412C794.91 101.527 787.885 102.348 779.667 102.348V104.348ZM809.474 84.9558H811.474C811.474 77.9891 809.681 71.0934 804.352 65.9632C799.038 60.8474 790.547 57.8177 777.872 57.8177V59.8177V61.8177C789.975 61.8177 797.286 64.7135 801.578 68.8449C805.855 72.962 807.474 78.6353 807.474 84.9558H809.474ZM777.872 59.8177V57.8177C769.038 57.8177 761.449 59.4685 755.621 63.8273C749.751 68.2171 745.972 75.1223 744.298 84.9801L746.27 85.3149L748.241 85.6498C749.799 76.4744 753.202 70.6311 758.016 67.0305C762.872 63.399 769.469 61.8177 777.872 61.8177V59.8177ZM746.27 85.3149V83.3149H684.502V85.3149V87.3149H746.27V85.3149ZM684.502 85.3149L686.497 85.448C688.259 59.0224 699.069 38.7165 715.586 24.9957C732.131 11.2524 754.545 4.00012 779.667 4.00012V2.00012V0.000115871C753.795 0.000115871 730.422 7.4716 713.03 21.9188C695.611 36.3886 684.336 57.7401 682.506 85.1819L684.502 85.3149ZM779.667 2.00012V4.00012C833.514 4.00012 869.242 35.3994 869.242 76.6962H871.242H873.242C873.242 32.5234 834.992 0.000115871 779.667 0.000115871V2.00012ZM871.242 76.6962H869.242C869.242 97.2486 859.5 115.235 843.285 124.895L844.308 126.613L845.332 128.331C862.873 117.881 873.242 98.5194 873.242 76.6962H871.242Z" fill="url(#paint0_linear_39_10064)" mask="url(#path-1-outside-1_39_10064)"/>
<defs>
<linearGradient id="paint0_linear_39_10064" x1="776.746" y1="258.05" x2="776.129" y2="-24.4994" gradientUnits="userSpaceOnUse">
<stop/>
<stop offset="1" stop-color="white" stop-opacity="0"/>
</linearGradient>
</defs>
</svg>
