<svg width="882" height="265" viewBox="0 0 882 265" fill="none" xmlns="http://www.w3.org/2000/svg">
<mask id="path-1-outside-1_731_3600" maskUnits="userSpaceOnUse" x="-0.568359" y="-0.951172" width="882" height="266" fill="black">
<rect fill="white" x="-0.568359" y="-0.951172" width="882" height="266"/>
<path d="M102.194 199.872H196.641V258.049H2.00069V214.596L75.6194 150.314C122.664 109.016 130.205 101.474 130.205 86.3916C130.205 74.1816 122.664 60.1761 99.6801 60.1761C78.8514 60.1761 68.7962 71.6678 66.2824 94.2921H4.87361C7.02831 37.5518 47.2493 1.99938 102.553 1.99938C159.293 1.99938 191.973 40.0656 191.973 83.5186C191.973 122.662 165.757 144.568 126.255 179.043L102.912 199.513L102.194 199.872ZM331.503 1.99938C401.172 1.99938 442.829 54.0712 442.829 132.358C442.829 210.646 401.172 262.717 331.503 262.717C261.835 262.717 220.177 210.646 220.177 132.358C220.177 54.0712 261.835 1.99938 331.503 1.99938ZM331.503 204.541C367.056 204.541 381.061 178.684 381.061 132.358C381.061 86.0324 367.056 60.1761 331.503 60.1761C295.951 60.1761 281.945 86.0324 281.945 132.358C281.945 178.684 295.951 204.541 331.503 204.541ZM563.012 199.872H657.46V258.049H462.819V214.596L536.438 150.314C583.482 109.016 591.023 101.474 591.023 86.3916C591.023 74.1816 583.482 60.1761 560.498 60.1761C539.67 60.1761 529.614 71.6678 527.101 94.2921H465.692C467.847 37.5518 508.068 1.99938 563.371 1.99938C620.112 1.99938 652.791 40.0656 652.791 83.5186C652.791 122.662 626.576 144.568 587.073 179.043L563.73 199.513L563.012 199.872ZM795.829 87.828C839.641 87.828 879.143 117.276 879.143 171.502C879.143 228.601 836.768 262.717 781.105 262.717C732.983 262.717 684.862 236.143 682.707 175.093H744.475C746.63 196.999 763.508 204.9 780.387 204.9C803.729 204.9 817.375 190.176 817.375 170.784C817.375 150.314 802.652 138.104 781.464 138.104C763.508 138.104 752.016 146.723 747.707 153.546H689.53L720.773 6.66789H867.293V64.8446H766.74L760.276 96.4468C769.254 91.4192 780.746 87.828 795.829 87.828Z"/>
</mask>
<path d="M102.194 199.872L101.3 198.083L102.194 201.872V199.872ZM196.641 199.872H198.641V197.872H196.641V199.872ZM196.641 258.049V260.049H198.641V258.049H196.641ZM2.00069 258.049H0.000686646V260.049H2.00069V258.049ZM2.00069 214.596L0.685239 213.089L0.000686646 213.687V214.596H2.00069ZM75.6194 150.314L76.9348 151.821L76.9388 151.817L75.6194 150.314ZM66.2824 94.2921V96.2921H68.0725L68.2701 94.513L66.2824 94.2921ZM4.87361 94.2921L2.87505 94.2162L2.79622 96.2921H4.87361V94.2921ZM126.255 179.043L124.94 177.537L124.936 177.54L126.255 179.043ZM102.912 199.513L103.807 201.302L104.037 201.187L104.231 201.017L102.912 199.513ZM102.194 199.872V201.872H196.641V199.872V197.872H102.194V199.872ZM196.641 199.872H194.641V258.049H196.641H198.641V199.872H196.641ZM196.641 258.049V256.049H2.00069V258.049V260.049H196.641V258.049ZM2.00069 258.049H4.00069V214.596H2.00069H0.000686646V258.049H2.00069ZM2.00069 214.596L3.31613 216.102L76.9348 151.821L75.6194 150.314L74.3039 148.808L0.685239 213.089L2.00069 214.596ZM75.6194 150.314L76.9388 151.817C100.414 131.209 114.187 118.894 122.063 109.834C126.022 105.28 128.583 101.448 130.139 97.7019C131.707 93.9241 132.205 90.3497 132.205 86.3916H130.205H128.205C128.205 89.9749 127.76 92.9992 126.444 96.1681C125.116 99.3683 122.851 102.831 119.044 107.21C111.389 116.016 97.8686 128.121 74.2999 148.811L75.6194 150.314ZM130.205 86.3916H132.205C132.205 79.8977 130.2 72.8097 125.014 67.3304C119.799 61.8198 111.594 58.1761 99.6801 58.1761V60.1761V62.1761C110.749 62.1761 117.807 65.5352 122.109 70.0799C126.439 74.6558 128.205 80.6755 128.205 86.3916H130.205ZM99.6801 60.1761V58.1761C88.8852 58.1761 80.5756 61.1669 74.6652 67.3704C68.8068 73.5193 65.5751 82.5473 64.2946 94.0712L66.2824 94.2921L68.2701 94.513C69.5035 83.4126 72.5563 75.3827 77.5612 70.1296C82.514 64.9312 89.6463 62.1761 99.6801 62.1761V60.1761ZM66.2824 94.2921V92.2921H4.87361V94.2921V96.2921H66.2824V94.2921ZM4.87361 94.2921L6.87217 94.368C7.93152 66.4717 18.3328 43.9185 35.1422 28.3348C51.9603 12.743 75.3334 3.99938 102.553 3.99938V1.99938V-0.00061655C74.4689 -0.00061655 50.0797 9.03196 32.4227 25.4015C14.7569 41.7791 3.9704 65.3722 2.87505 94.2162L4.87361 94.2921ZM102.553 1.99938V3.99938C130.46 3.99938 152.293 13.3508 167.141 27.893C181.998 42.4442 189.973 62.2993 189.973 83.5186H191.973H193.973C193.973 61.285 185.608 40.3805 169.94 25.0353C154.263 9.68112 131.387 -0.00061655 102.553 -0.00061655V1.99938ZM191.973 83.5186H189.973C189.973 121.576 164.663 142.869 124.94 177.537L126.255 179.043L127.57 180.55C166.852 146.268 193.973 123.748 193.973 83.5186H191.973ZM126.255 179.043L124.936 177.54L101.594 198.009L102.912 199.513L104.231 201.017L127.573 180.547L126.255 179.043ZM102.912 199.513L102.018 197.724L101.3 198.083L102.194 199.872L103.088 201.661L103.807 201.302L102.912 199.513ZM331.503 1.99938V3.99938C365.798 3.99938 393.049 16.794 411.759 39.1063C430.504 61.4593 440.829 93.551 440.829 132.358H442.829H444.829C444.829 92.8785 434.325 59.7907 414.824 36.5361C395.289 13.2407 366.877 -0.00061655 331.503 -0.00061655V1.99938ZM442.829 132.358H440.829C440.829 171.166 430.504 203.257 411.759 225.61C393.049 247.923 365.798 260.717 331.503 260.717V262.717V264.717C366.877 264.717 395.289 251.476 414.824 228.181C434.325 204.926 444.829 171.838 444.829 132.358H442.829ZM331.503 262.717V260.717C297.208 260.717 269.958 247.923 251.247 225.61C232.502 203.257 222.177 171.166 222.177 132.358H220.177H218.177C218.177 171.838 228.681 204.926 248.182 228.181C267.717 251.476 296.13 264.717 331.503 264.717V262.717ZM220.177 132.358H222.177C222.177 93.551 232.502 61.4593 251.247 39.1063C269.958 16.794 297.208 3.99938 331.503 3.99938V1.99938V-0.00061655C296.13 -0.00061655 267.717 13.2407 248.182 36.5361C228.681 59.7907 218.177 92.8785 218.177 132.358H220.177ZM331.503 204.541V206.541C349.847 206.541 362.922 199.82 371.293 186.91C379.554 174.167 383.061 155.65 383.061 132.358H381.061H379.061C379.061 155.393 375.565 172.967 367.936 184.734C360.416 196.333 348.712 202.541 331.503 202.541V204.541ZM381.061 132.358H383.061C383.061 109.067 379.554 90.5497 371.293 77.807C362.922 64.8967 349.847 58.1761 331.503 58.1761V60.1761V62.1761C348.712 62.1761 360.416 68.3837 367.936 79.9831C375.565 91.75 379.061 109.324 379.061 132.358H381.061ZM331.503 60.1761V58.1761C313.16 58.1761 300.084 64.8967 291.714 77.807C283.452 90.5497 279.945 109.067 279.945 132.358H281.945H283.945C283.945 109.324 287.441 91.75 295.07 79.9831C302.591 68.3837 314.295 62.1761 331.503 62.1761V60.1761ZM281.945 132.358H279.945C279.945 155.65 283.452 174.167 291.714 186.91C300.084 199.82 313.16 206.541 331.503 206.541V204.541V202.541C314.295 202.541 302.591 196.333 295.07 184.734C287.441 172.967 283.945 155.393 283.945 132.358H281.945ZM563.012 199.872L562.118 198.083L563.012 201.872V199.872ZM657.46 199.872H659.46V197.872H657.46V199.872ZM657.46 258.049V260.049H659.46V258.049H657.46ZM462.819 258.049H460.819V260.049H462.819V258.049ZM462.819 214.596L461.504 213.089L460.819 213.687V214.596H462.819ZM536.438 150.314L537.753 151.821L537.757 151.817L536.438 150.314ZM527.101 94.2921V96.2921H528.891L529.088 94.513L527.101 94.2921ZM465.692 94.2921L463.693 94.2162L463.615 96.2921H465.692V94.2921ZM587.073 179.043L585.758 177.537L585.754 177.54L587.073 179.043ZM563.73 199.513L564.625 201.302L564.855 201.187L565.049 201.017L563.73 199.513ZM563.012 199.872V201.872H657.46V199.872V197.872H563.012V199.872ZM657.46 199.872H655.46V258.049H657.46H659.46V199.872H657.46ZM657.46 258.049V256.049H462.819V258.049V260.049H657.46V258.049ZM462.819 258.049H464.819V214.596H462.819H460.819V258.049H462.819ZM462.819 214.596L464.134 216.102L537.753 151.821L536.438 150.314L535.122 148.808L461.504 213.089L462.819 214.596ZM536.438 150.314L537.757 151.817C561.233 131.209 575.005 118.894 582.881 109.834C586.841 105.28 589.401 101.448 590.957 97.7019C592.525 93.9241 593.023 90.3497 593.023 86.3916H591.023H589.023C589.023 89.9749 588.578 92.9992 587.263 96.1681C585.934 99.3683 583.669 102.831 579.863 107.21C572.207 116.016 558.687 128.121 535.118 148.811L536.438 150.314ZM591.023 86.3916H593.023C593.023 79.8977 591.018 72.8097 585.832 67.3304C580.617 61.8198 572.413 58.1761 560.498 58.1761V60.1761V62.1761C571.568 62.1761 578.626 65.5352 582.927 70.0799C587.258 74.6558 589.023 80.6755 589.023 86.3916H591.023ZM560.498 60.1761V58.1761C549.703 58.1761 541.394 61.1669 535.483 67.3704C529.625 73.5193 526.393 82.5473 525.113 94.0712L527.101 94.2921L529.088 94.513C530.322 83.4126 533.375 75.3827 538.379 70.1296C543.332 64.9312 550.465 62.1761 560.498 62.1761V60.1761ZM527.101 94.2921V92.2921H465.692V94.2921V96.2921H527.101V94.2921ZM465.692 94.2921L467.69 94.368C468.75 66.4717 479.151 43.9185 495.96 28.3348C512.779 12.743 536.152 3.99938 563.371 3.99938V1.99938V-0.00061655C535.287 -0.00061655 510.898 9.03196 493.241 25.4015C475.575 41.7791 464.789 65.3722 463.693 94.2162L465.692 94.2921ZM563.371 1.99938V3.99938C591.278 3.99938 613.112 13.3508 627.959 27.893C642.816 42.4442 650.791 62.2993 650.791 83.5186H652.791H654.791C654.791 61.285 646.426 40.3805 630.758 25.0353C615.081 9.68112 592.205 -0.00061655 563.371 -0.00061655V1.99938ZM652.791 83.5186H650.791C650.791 121.576 625.481 142.869 585.758 177.537L587.073 179.043L588.388 180.55C627.67 146.268 654.791 123.748 654.791 83.5186H652.791ZM587.073 179.043L585.754 177.54L562.412 198.009L563.73 199.513L565.049 201.017L588.392 180.547L587.073 179.043ZM563.73 199.513L562.836 197.724L562.118 198.083L563.012 199.872L563.907 201.661L564.625 201.302L563.73 199.513ZM682.707 175.093V173.093H680.635L680.708 175.164L682.707 175.093ZM744.475 175.093L746.465 174.897L746.288 173.093H744.475V175.093ZM747.707 153.546V155.546H748.809L749.398 154.614L747.707 153.546ZM689.53 153.546L687.574 153.13L687.06 155.546H689.53V153.546ZM720.773 6.66789V4.66789H719.154L718.817 6.25177L720.773 6.66789ZM867.293 6.66789H869.293V4.66789H867.293V6.66789ZM867.293 64.8446V66.8446H869.293V64.8446H867.293ZM766.74 64.8446V62.8446H765.108L764.781 64.4438L766.74 64.8446ZM760.276 96.4468L758.317 96.046L757.441 100.327L761.253 98.1918L760.276 96.4468ZM795.829 87.828V89.828C817.296 89.828 837.622 97.0417 852.561 110.801C867.473 124.536 877.143 144.908 877.143 171.502H879.143H881.143C881.143 143.87 871.062 122.404 855.27 107.859C839.505 93.3381 818.173 85.828 795.829 85.828V87.828ZM879.143 171.502H877.143C877.143 199.523 866.763 221.769 849.666 237.03C832.543 252.313 808.536 260.717 781.105 260.717V262.717V264.717C809.336 264.717 834.349 256.063 852.329 240.014C870.336 223.942 881.143 200.58 881.143 171.502H879.143ZM781.105 262.717V260.717C757.385 260.717 733.787 254.164 715.898 240.221C698.064 226.322 685.763 204.975 684.706 175.023L682.707 175.093L680.708 175.164C681.806 206.261 694.643 228.726 713.439 243.376C732.18 257.983 756.703 264.717 781.105 264.717V262.717ZM682.707 175.093V177.093H744.475V175.093V173.093H682.707V175.093ZM744.475 175.093L742.485 175.289C743.615 186.781 748.65 194.77 755.747 199.839C762.78 204.863 771.666 206.9 780.387 206.9V204.9V202.9C772.229 202.9 764.236 200.987 758.072 196.584C751.971 192.226 747.49 185.311 746.465 174.897L744.475 175.093ZM780.387 204.9V206.9C792.486 206.9 802.261 203.076 809.023 196.553C815.786 190.03 819.375 180.961 819.375 170.784H817.375H815.375C815.375 179.999 812.142 187.987 806.246 193.674C800.349 199.362 791.63 202.9 780.387 202.9V204.9ZM817.375 170.784H819.375C819.375 160.038 815.493 151.301 808.692 145.271C801.918 139.266 792.431 136.104 781.464 136.104V138.104V140.104C791.685 140.104 800.153 143.047 806.038 148.264C811.896 153.457 815.375 161.06 815.375 170.784H817.375ZM781.464 138.104V136.104C762.868 136.104 750.716 145.037 746.016 152.478L747.707 153.546L749.398 154.614C753.317 148.409 764.148 140.104 781.464 140.104V138.104ZM747.707 153.546V151.546H689.53V153.546V155.546H747.707V153.546ZM689.53 153.546L691.487 153.962L722.73 7.08401L720.773 6.66789L718.817 6.25177L687.574 153.13L689.53 153.546ZM720.773 6.66789V8.66789H867.293V6.66789V4.66789H720.773V6.66789ZM867.293 6.66789H865.293V64.8446H867.293H869.293V6.66789H867.293ZM867.293 64.8446V62.8446H766.74V64.8446V66.8446H867.293V64.8446ZM766.74 64.8446L764.781 64.4438L758.317 96.046L760.276 96.4468L762.236 96.8476L768.7 65.2454L766.74 64.8446ZM760.276 96.4468L761.253 98.1918C769.93 93.3331 781.084 89.828 795.829 89.828V87.828V85.828C780.407 85.828 768.578 89.5052 759.299 94.7018L760.276 96.4468Z" fill="url(#paint0_linear_731_3600)" mask="url(#path-1-outside-1_731_3600)"/>
<defs>
<linearGradient id="paint0_linear_731_3600" x1="777.62" y1="258.049" x2="777.004" y2="-24.5001" gradientUnits="userSpaceOnUse">
<stop/>
<stop offset="1" stop-color="white" stop-opacity="0"/>
</linearGradient>
</defs>
</svg>
