<svg width="876" height="262" viewBox="0 0 876 262" fill="none" xmlns="http://www.w3.org/2000/svg">
<mask id="path-1-outside-1_39_9545" maskUnits="userSpaceOnUse" x="-2" y="-2" width="880" height="266" fill="black">
<rect fill="white" x="-2" y="-2" width="880" height="266"/>
<path d="M100.762 198.823H195.21V257H0.569046V213.547L74.1877 149.265C98.3682 127.958 113.451 113.833 119.436 106.89C125.661 99.9468 128.773 92.7645 128.773 85.3427C128.773 78.1604 126.26 72.0555 121.232 67.0278C116.444 61.7608 108.783 59.1273 98.2485 59.1273C78.6168 59.1273 67.4843 70.4993 64.8507 93.2433H3.44197C4.39961 65.2323 13.8563 42.8474 31.8121 26.0887C50.0073 9.32993 73.1104 0.950556 101.121 0.950556C128.414 0.950556 150.081 8.8511 166.121 24.6522C182.401 40.4533 190.541 59.7258 190.541 82.4698C190.541 90.1309 189.344 97.5527 186.95 104.735C184.556 111.678 182.042 117.663 179.409 122.691C176.775 127.479 171.747 133.704 164.326 141.365C157.143 148.786 151.398 154.413 147.088 158.243C143.018 161.834 135.597 168.418 124.823 177.995L101.481 198.464L100.762 198.823ZM248.552 36.503C268.423 12.8014 295.597 0.950556 330.072 0.950556C364.547 0.950556 391.72 12.8014 411.591 36.503C431.462 60.2046 441.397 91.8068 441.397 131.31C441.397 170.812 431.462 202.414 411.591 226.116C391.72 249.818 364.547 261.669 330.072 261.669C295.597 261.669 268.423 249.818 248.552 226.116C228.681 202.414 218.746 170.812 218.746 131.31C218.746 91.8068 228.681 60.2046 248.552 36.503ZM292.365 185.536C300.265 197.507 312.834 203.492 330.072 203.492C347.309 203.492 359.878 197.507 367.779 185.536C375.679 173.326 379.63 155.251 379.63 131.31C379.63 107.368 375.679 89.4127 367.779 77.4422C359.878 65.2323 347.309 59.1273 330.072 59.1273C312.834 59.1273 300.265 65.2323 292.365 77.4422C284.464 89.4127 280.514 107.368 280.514 131.31C280.514 155.251 284.464 173.326 292.365 185.536ZM561.581 198.823H656.028V257H461.387V213.547L535.006 149.265C559.186 127.958 574.269 113.833 580.255 106.89C586.479 99.9468 589.592 92.7645 589.592 85.3427C589.592 78.1604 587.078 72.0555 582.05 67.0278C577.262 61.7608 569.601 59.1273 559.067 59.1273C539.435 59.1273 528.303 70.4993 525.669 93.2433H464.26C465.218 65.2323 474.675 42.8474 492.63 26.0887C510.826 9.32993 533.929 0.950556 561.94 0.950556C589.232 0.950556 610.899 8.8511 626.94 24.6522C643.22 40.4533 651.359 59.7258 651.359 82.4698C651.359 90.1309 650.162 97.5527 647.768 104.735C645.374 111.678 642.86 117.663 640.227 122.691C637.593 127.479 632.566 133.704 625.144 141.365C617.962 148.786 612.216 154.413 607.906 158.243C603.837 161.834 596.415 168.418 585.641 177.995L562.299 198.464L561.581 198.823ZM781.469 198.823H875.916V257H681.275V213.547L754.894 149.265C779.075 127.958 794.157 113.833 800.143 106.89C806.367 99.9468 809.48 92.7645 809.48 85.3427C809.48 78.1604 806.966 72.0555 801.938 67.0278C797.15 61.7608 789.489 59.1273 778.955 59.1273C759.323 59.1273 748.191 70.4993 745.557 93.2433H684.148C685.106 65.2323 694.563 42.8474 712.519 26.0887C730.714 9.32993 753.817 0.950556 781.828 0.950556C809.121 0.950556 830.787 8.8511 846.828 24.6522C863.108 40.4533 871.248 59.7258 871.248 82.4698C871.248 90.1309 870.051 97.5527 867.656 104.735C865.262 111.678 862.749 117.663 860.115 122.691C857.482 127.479 852.454 133.704 845.032 141.365C837.85 148.786 832.104 154.413 827.795 158.243C823.725 161.834 816.303 168.418 805.529 177.995L782.187 198.464L781.469 198.823Z"/>
</mask>
<path d="M100.762 198.823L99.8679 197.034L100.762 200.823V198.823ZM195.21 198.823H197.21V196.823H195.21V198.823ZM195.21 257V259H197.21V257H195.21ZM0.569046 257H-1.43095V259H0.569046V257ZM0.569046 213.547L-0.746402 212.04L-1.43095 212.638V213.547H0.569046ZM74.1877 149.265L75.5032 150.772L75.51 150.766L74.1877 149.265ZM119.436 106.89L117.947 105.555L117.934 105.569L117.921 105.584L119.436 106.89ZM121.232 67.0278L119.752 68.3732L119.784 68.4084L119.818 68.442L121.232 67.0278ZM64.8507 93.2433V95.2433H66.6325L66.8375 93.4733L64.8507 93.2433ZM3.44197 93.2433L1.44314 93.1749L1.37243 95.2433H3.44197V93.2433ZM31.8121 26.0887L30.4571 24.6175L30.4475 24.6266L31.8121 26.0887ZM166.121 24.6522L164.718 26.077L164.723 26.0822L164.728 26.0874L166.121 24.6522ZM186.95 104.735L188.841 105.387L188.844 105.377L188.847 105.367L186.95 104.735ZM179.409 122.691L181.161 123.655L181.171 123.637L181.18 123.619L179.409 122.691ZM164.326 141.365L162.889 139.973L162.889 139.974L164.326 141.365ZM147.088 158.243L148.411 159.743L148.417 159.738L147.088 158.243ZM124.823 177.995L126.142 179.498L126.152 179.489L124.823 177.995ZM101.481 198.464L102.375 200.253L102.605 200.138L102.799 199.968L101.481 198.464ZM100.762 200.823H195.21V196.823H100.762V200.823ZM193.21 198.823V257H197.21V198.823H193.21ZM195.21 255H0.569046V259H195.21V255ZM2.56905 257V213.547H-1.43095V257H2.56905ZM1.88449 215.054L75.5032 150.772L72.8723 147.759L-0.746402 212.04L1.88449 215.054ZM75.51 150.766C99.6611 129.484 114.858 115.263 120.951 108.196L117.921 105.584C112.044 112.402 97.0753 126.431 72.8655 147.765L75.51 150.766ZM120.925 108.225C127.392 101.013 130.773 93.3742 130.773 85.3427H126.773C126.773 92.1547 123.93 98.881 117.947 105.555L120.925 108.225ZM130.773 85.3427C130.773 77.636 128.053 71.0206 122.646 65.6136L119.818 68.442C124.466 73.0903 126.773 78.6848 126.773 85.3427H130.773ZM122.712 65.6825C117.393 59.8323 109.073 57.1273 98.2485 57.1273V61.1273C108.492 61.1273 115.494 63.6894 119.752 68.3732L122.712 65.6825ZM98.2485 57.1273C88.0286 57.1273 79.7729 60.1008 73.7461 66.2572C67.7592 72.3729 64.2101 81.388 62.864 93.0132L66.8375 93.4733C68.1249 82.3546 71.4589 74.3117 76.6045 69.0554C81.7103 63.8398 88.8367 61.1273 98.2485 61.1273V57.1273ZM64.8507 91.2433H3.44197V95.2433H64.8507V91.2433ZM5.4408 93.3116C6.3831 65.7496 15.6646 43.8954 33.1767 27.5508L30.4475 24.6266C12.0481 41.7993 2.41613 64.715 1.44314 93.1749L5.4408 93.3116ZM33.1671 27.5598C50.9436 11.1866 73.5409 2.95056 101.121 2.95056V-1.04944C72.6799 -1.04944 49.071 7.47321 30.4572 24.6176L33.1671 27.5598ZM101.121 2.95056C128.008 2.95056 149.128 10.7201 164.718 26.077L167.525 23.2274C151.033 6.98209 128.821 -1.04944 101.121 -1.04944V2.95056ZM164.728 26.0874C180.619 41.5107 188.541 60.2651 188.541 82.4698H192.541C192.541 59.1866 184.183 39.3958 167.514 23.217L164.728 26.0874ZM188.541 82.4698C188.541 89.9186 187.378 97.1266 185.053 104.103L188.847 105.367C191.31 97.9787 192.541 90.3433 192.541 82.4698H188.541ZM185.059 104.083C182.689 110.957 180.213 116.845 177.637 121.763L181.18 123.619C183.872 118.481 186.423 112.399 188.841 105.387L185.059 104.083ZM177.656 121.727C175.155 126.274 170.281 132.343 162.889 139.973L165.762 142.756C173.214 135.064 178.395 128.684 181.161 123.655L177.656 121.727ZM162.889 139.974C155.719 147.383 150.013 152.967 145.759 156.748L148.417 159.738C152.782 155.858 158.568 150.19 165.763 142.756L162.889 139.974ZM145.765 156.744C141.692 160.337 134.268 166.924 123.494 176.5L126.152 179.489C136.925 169.913 144.345 163.331 148.411 159.743L145.765 156.744ZM123.504 176.491L100.162 196.96L102.799 199.968L126.142 179.498L123.504 176.491ZM100.586 196.675L99.8679 197.034L101.657 200.612L102.375 200.253L100.586 196.675ZM248.552 36.503L250.085 37.7879L248.552 36.503ZM411.591 36.503L410.058 37.7879L411.591 36.503ZM411.591 226.116L410.058 224.831L411.591 226.116ZM248.552 226.116L247.02 227.401L248.552 226.116ZM292.365 185.536L290.685 186.622L290.69 186.63L290.695 186.638L292.365 185.536ZM367.779 185.536L369.448 186.638L369.453 186.63L369.458 186.622L367.779 185.536ZM367.779 77.4422L366.1 78.5287L366.105 78.5363L366.11 78.5439L367.779 77.4422ZM292.365 77.4422L294.034 78.5439L294.039 78.5363L294.044 78.5287L292.365 77.4422ZM250.085 37.7879C269.53 14.595 296.112 2.95056 330.072 2.95056V-1.04944C295.081 -1.04944 267.317 11.0077 247.02 35.2181L250.085 37.7879ZM330.072 2.95056C364.032 2.95056 390.614 14.595 410.058 37.7879L413.124 35.2181C392.826 11.0077 365.062 -1.04944 330.072 -1.04944V2.95056ZM410.058 37.7879C429.552 61.0391 439.397 92.1436 439.397 131.31H443.397C443.397 91.47 433.372 59.3701 413.124 35.2181L410.058 37.7879ZM439.397 131.31C439.397 170.475 429.552 201.58 410.058 224.831L413.124 227.401C433.372 203.249 443.397 171.149 443.397 131.31H439.397ZM410.058 224.831C390.614 248.024 364.032 259.669 330.072 259.669V263.669C365.062 263.669 392.826 251.611 413.124 227.401L410.058 224.831ZM330.072 259.669C296.112 259.669 269.53 248.024 250.085 224.831L247.02 227.401C267.317 251.611 295.081 263.669 330.072 263.669V259.669ZM250.085 224.831C230.592 201.58 220.746 170.475 220.746 131.31H216.746C216.746 171.149 226.771 203.249 247.02 227.401L250.085 224.831ZM220.746 131.31C220.746 92.1436 230.592 61.0391 250.085 37.7879L247.02 35.2181C226.771 59.3701 216.746 91.47 216.746 131.31H220.746ZM290.695 186.638C299.044 199.288 312.318 205.492 330.072 205.492V201.492C313.35 201.492 301.486 195.725 294.034 184.434L290.695 186.638ZM330.072 205.492C347.825 205.492 361.099 199.288 369.448 186.638L366.11 184.434C358.658 195.725 346.793 201.492 330.072 201.492V205.492ZM369.458 186.622C377.663 173.941 381.63 155.412 381.63 131.31H377.63C377.63 155.089 373.695 172.711 366.1 184.449L369.458 186.622ZM381.63 131.31C381.63 107.212 377.665 88.7905 369.448 76.3405L366.11 78.5439C373.694 90.0349 377.63 107.525 377.63 131.31H381.63ZM369.458 76.3557C361.116 63.4637 347.842 57.1273 330.072 57.1273V61.1273C346.777 61.1273 358.64 67.0008 366.1 78.5287L369.458 76.3557ZM330.072 57.1273C312.301 57.1273 299.027 63.4637 290.685 76.3557L294.044 78.5287C301.503 67.0008 313.367 61.1273 330.072 61.1273V57.1273ZM290.695 76.3405C282.478 88.7905 278.514 107.212 278.514 131.31H282.514C282.514 107.525 286.45 90.0349 294.034 78.5439L290.695 76.3405ZM278.514 131.31C278.514 155.412 282.48 173.941 290.685 186.622L294.044 184.449C286.448 172.711 282.514 155.089 282.514 131.31H278.514ZM561.581 198.823L560.686 197.034L561.581 200.823V198.823ZM656.028 198.823H658.028V196.823H656.028V198.823ZM656.028 257V259H658.028V257H656.028ZM461.387 257H459.387V259H461.387V257ZM461.387 213.547L460.072 212.04L459.387 212.638V213.547H461.387ZM535.006 149.265L536.321 150.772L536.328 150.766L535.006 149.265ZM580.255 106.89L578.765 105.555L578.752 105.569L578.74 105.584L580.255 106.89ZM582.05 67.0278L580.57 68.3732L580.602 68.4084L580.636 68.442L582.05 67.0278ZM525.669 93.2433V95.2433H527.451L527.656 93.4733L525.669 93.2433ZM464.26 93.2433L462.261 93.1749L462.191 95.2433H464.26V93.2433ZM492.63 26.0887L491.275 24.6175L491.266 24.6266L492.63 26.0887ZM626.94 24.6522L625.536 26.077L625.541 26.0822L625.547 26.0874L626.94 24.6522ZM647.768 104.735L649.659 105.387L649.662 105.377L649.666 105.367L647.768 104.735ZM640.227 122.691L641.979 123.655L641.989 123.637L641.999 123.619L640.227 122.691ZM625.144 141.365L623.708 139.973L623.707 139.974L625.144 141.365ZM607.906 158.243L609.23 159.743L609.235 159.738L607.906 158.243ZM585.641 177.995L586.96 179.498L586.97 179.489L585.641 177.995ZM562.299 198.464L563.193 200.253L563.424 200.138L563.617 199.968L562.299 198.464ZM561.581 200.823H656.028V196.823H561.581V200.823ZM654.028 198.823V257H658.028V198.823H654.028ZM656.028 255H461.387V259H656.028V255ZM463.387 257V213.547H459.387V257H463.387ZM462.703 215.054L536.321 150.772L533.691 147.759L460.072 212.04L462.703 215.054ZM536.328 150.766C560.479 129.484 575.676 115.263 581.769 108.196L578.74 105.584C572.862 112.402 557.894 126.431 533.684 147.765L536.328 150.766ZM581.744 108.225C588.21 101.013 591.592 93.3742 591.592 85.3427H587.592C587.592 92.1547 584.749 98.881 578.765 105.555L581.744 108.225ZM591.592 85.3427C591.592 77.636 588.871 71.0206 583.464 65.6136L580.636 68.442C585.284 73.0903 587.592 78.6848 587.592 85.3427H591.592ZM583.53 65.6825C578.212 59.8323 569.892 57.1273 559.067 57.1273V61.1273C569.31 61.1273 576.312 63.6894 580.57 68.3732L583.53 65.6825ZM559.067 57.1273C548.847 57.1273 540.591 60.1008 534.564 66.2572C528.577 72.3729 525.028 81.388 523.682 93.0132L527.656 93.4733C528.943 82.3546 532.277 74.3117 537.423 69.0554C542.529 63.8398 549.655 61.1273 559.067 61.1273V57.1273ZM525.669 91.2433H464.26V95.2433H525.669V91.2433ZM466.259 93.3116C467.201 65.7496 476.483 43.8954 493.995 27.5508L491.266 24.6266C472.866 41.7993 463.234 64.715 462.261 93.1749L466.259 93.3116ZM493.985 27.5598C511.762 11.1866 534.359 2.95056 561.94 2.95056V-1.04944C533.498 -1.04944 509.889 7.47321 491.275 24.6176L493.985 27.5598ZM561.94 2.95056C588.826 2.95056 609.947 10.7201 625.536 26.077L628.343 23.2274C611.852 6.98209 589.639 -1.04944 561.94 -1.04944V2.95056ZM625.547 26.0874C641.437 41.5107 649.359 60.2651 649.359 82.4698H653.359C653.359 59.1866 645.002 39.3958 628.333 23.217L625.547 26.0874ZM649.359 82.4698C649.359 89.9186 648.196 97.1266 645.871 104.103L649.666 105.367C652.129 97.9787 653.359 90.3433 653.359 82.4698H649.359ZM645.878 104.083C643.507 110.957 641.031 116.845 638.455 121.763L641.999 123.619C644.69 118.481 647.241 112.399 649.659 105.387L645.878 104.083ZM638.474 121.727C635.974 126.274 631.099 132.343 623.708 139.973L626.581 142.756C634.032 135.064 639.213 128.684 641.979 123.655L638.474 121.727ZM623.707 139.974C616.537 147.383 610.831 152.967 606.578 156.748L609.235 159.738C613.6 155.858 619.387 150.19 626.581 142.756L623.707 139.974ZM606.583 156.744C602.51 160.337 595.086 166.924 584.313 176.5L586.97 179.489C597.744 169.913 605.163 163.331 609.23 159.743L606.583 156.744ZM584.323 176.491L560.98 196.96L563.617 199.968L586.96 179.498L584.323 176.491ZM561.404 196.675L560.686 197.034L562.475 200.612L563.193 200.253L561.404 196.675ZM781.469 198.823L780.574 197.034L781.469 200.823V198.823ZM875.916 198.823H877.916V196.823H875.916V198.823ZM875.916 257V259H877.916V257H875.916ZM681.275 257H679.275V259H681.275V257ZM681.275 213.547L679.96 212.04L679.275 212.638V213.547H681.275ZM754.894 149.265L756.21 150.772L756.216 150.766L754.894 149.265ZM800.143 106.89L798.654 105.555L798.641 105.569L798.628 105.584L800.143 106.89ZM801.938 67.0278L800.458 68.3732L800.49 68.4084L800.524 68.442L801.938 67.0278ZM745.557 93.2433V95.2433H747.339L747.544 93.4733L745.557 93.2433ZM684.148 93.2433L682.15 93.1749L682.079 95.2433H684.148V93.2433ZM712.519 26.0887L711.164 24.6175L711.154 24.6266L712.519 26.0887ZM846.828 24.6522L845.424 26.077L845.43 26.0822L845.435 26.0874L846.828 24.6522ZM867.656 104.735L869.547 105.387L869.551 105.377L869.554 105.367L867.656 104.735ZM860.115 122.691L861.867 123.655L861.877 123.637L861.887 123.619L860.115 122.691ZM845.032 141.365L843.596 139.973L843.595 139.974L845.032 141.365ZM827.795 158.243L829.118 159.743L829.123 159.738L827.795 158.243ZM805.529 177.995L806.848 179.498L806.858 179.489L805.529 177.995ZM782.187 198.464L783.081 200.253L783.312 200.138L783.506 199.968L782.187 198.464ZM781.469 200.823H875.916V196.823H781.469V200.823ZM873.916 198.823V257H877.916V198.823H873.916ZM875.916 255H681.275V259H875.916V255ZM683.275 257V213.547H679.275V257H683.275ZM682.591 215.054L756.21 150.772L753.579 147.759L679.96 212.04L682.591 215.054ZM756.216 150.766C780.367 129.484 795.565 115.263 801.658 108.196L798.628 105.584C792.75 112.402 777.782 126.431 753.572 147.765L756.216 150.766ZM801.632 108.225C808.098 101.013 811.48 93.3742 811.48 85.3427H807.48C807.48 92.1547 804.637 98.881 798.654 105.555L801.632 108.225ZM811.48 85.3427C811.48 77.636 808.759 71.0206 803.353 65.6136L800.524 68.442C805.172 73.0903 807.48 78.6848 807.48 85.3427H811.48ZM803.418 65.6825C798.1 59.8323 789.78 57.1273 778.955 57.1273V61.1273C789.198 61.1273 796.2 63.6894 800.458 68.3732L803.418 65.6825ZM778.955 57.1273C768.735 57.1273 760.479 60.1008 754.453 66.2572C748.466 72.3729 744.917 81.388 743.57 93.0132L747.544 93.4733C748.831 82.3546 752.165 74.3117 757.311 69.0554C762.417 63.8398 769.543 61.1273 778.955 61.1273V57.1273ZM745.557 91.2433H684.148V95.2433H745.557V91.2433ZM686.147 93.3116C687.09 65.7496 696.371 43.8954 713.883 27.5508L711.154 24.6266C692.754 41.7993 683.123 64.715 682.15 93.1749L686.147 93.3116ZM713.873 27.5598C731.65 11.1866 754.247 2.95056 781.828 2.95056V-1.04944C753.386 -1.04944 729.777 7.47321 711.164 24.6176L713.873 27.5598ZM781.828 2.95056C808.714 2.95056 829.835 10.7201 845.424 26.077L848.231 23.2274C831.74 6.98209 809.527 -1.04944 781.828 -1.04944V2.95056ZM845.435 26.0874C861.326 41.5107 869.248 60.2651 869.248 82.4698H873.248C873.248 59.1866 864.89 39.3958 848.221 23.217L845.435 26.0874ZM869.248 82.4698C869.248 89.9186 868.084 97.1266 865.759 104.103L869.554 105.367C872.017 97.9787 873.248 90.3433 873.248 82.4698H869.248ZM865.766 104.083C863.395 110.957 860.919 116.845 858.343 121.763L861.887 123.619C864.578 118.481 867.129 112.399 869.547 105.387L865.766 104.083ZM858.363 121.727C855.862 126.274 850.987 132.343 843.596 139.973L846.469 142.756C853.92 135.064 859.101 128.684 861.867 123.655L858.363 121.727ZM843.595 139.974C836.425 147.383 830.72 152.967 826.466 156.748L829.123 159.738C833.488 155.858 839.275 150.19 846.469 142.756L843.595 139.974ZM826.471 156.744C822.398 160.337 814.974 166.924 804.201 176.5L806.858 179.489C817.632 169.913 825.051 163.331 829.118 159.743L826.471 156.744ZM804.211 176.491L780.868 196.96L783.506 199.968L806.848 179.498L804.211 176.491ZM781.293 196.675L780.574 197.034L782.363 200.612L783.081 200.253L781.293 196.675Z" fill="url(#paint0_linear_39_9545)" mask="url(#path-1-outside-1_39_9545)"/>
<defs>
<linearGradient id="paint0_linear_39_9545" x1="774.442" y1="257" x2="773.825" y2="-25.5489" gradientUnits="userSpaceOnUse">
<stop/>
<stop offset="1" stop-color="white" stop-opacity="0"/>
</linearGradient>
</defs>
</svg>
