<svg width="40" height="40" viewBox="0 0 40 40" fill="none" xmlns="http://www.w3.org/2000/svg">
<path d="M27.5 5H12.5C8.35786 5 5 8.35786 5 12.5V27.5C5 31.6421 8.35786 35 12.5 35H27.5C31.6421 35 35 31.6421 35 27.5V12.5C35 8.35786 31.6421 5 27.5 5Z" stroke="black" stroke-width="3" stroke-linecap="round" stroke-linejoin="round"/>
<path d="M25.9351 19.1199C26.1202 20.3683 25.907 21.6432 25.3257 22.7634C24.7445 23.8836 23.8248 24.792 22.6975 25.3594C21.5703 25.9268 20.2928 26.1243 19.0468 25.9238C17.8008 25.7233 16.6497 25.135 15.7574 24.2426C14.865 23.3503 14.2767 22.1992 14.0762 20.9532C13.8757 19.7072 14.0732 18.4297 14.6406 17.3025C15.208 16.1752 16.1164 15.2555 17.2366 14.6743C18.3568 14.093 19.6317 13.8798 20.8801 14.0649C22.1535 14.2537 23.3324 14.8471 24.2426 15.7574C25.1529 16.6676 25.7463 17.8465 25.9351 19.1199Z" stroke="black" stroke-width="3" stroke-linecap="round" stroke-linejoin="round"/>
<path d="M28 12H28.0137" stroke="black" stroke-width="3" stroke-linecap="round" stroke-linejoin="round"/>
</svg>
