<svg width="109" height="109" viewBox="0 0 109 109" fill="none" xmlns="http://www.w3.org/2000/svg">
<path d="M91.1138 84.9178C96.0056 79.0322 99.4079 72.0549 101.033 64.5763C102.658 57.0977 102.458 49.3377 100.449 41.9528C98.4409 34.5679 94.6834 27.7753 89.4946 22.1497C84.3059 16.5241 77.8386 12.231 70.6397 9.6335C63.4409 7.036 55.7223 6.21054 48.137 7.22697C40.5517 8.24339 33.3227 11.0718 27.0617 15.4729C20.8007 19.874 15.6917 25.7184 12.1671 32.5115C8.64247 39.3047 6.80581 46.8469 6.81252 54.5C6.81509 65.6254 10.7356 76.3946 17.8862 84.9178L17.8181 84.9757C18.0566 85.2618 18.3291 85.5071 18.5743 85.7898C18.8809 86.1407 19.2113 86.4711 19.5281 86.8117C20.4818 87.8472 21.4628 88.8418 22.4915 89.7751C22.8049 90.0612 23.1285 90.3269 23.4452 90.5994C24.5352 91.5396 25.6559 92.432 26.8174 93.2631C26.9673 93.3653 27.1036 93.4982 27.2534 93.6037V93.5629C35.2312 99.1769 44.7483 102.19 54.5034 102.19C64.2586 102.19 73.7756 99.1769 81.7534 93.5629V93.6037C81.9033 93.4982 82.0361 93.3653 82.1894 93.2631C83.3476 92.4286 84.4716 91.5396 85.5616 90.5994C85.8784 90.3269 86.202 90.0578 86.5154 89.7751C87.5441 88.8384 88.5251 87.8472 89.4788 86.8117C89.7956 86.4711 90.1226 86.1407 90.4326 85.7898C90.6744 85.5071 90.9503 85.2618 91.1887 84.9723L91.1138 84.9178ZM54.5 27.25C57.5316 27.25 60.4952 28.149 63.0159 29.8333C65.5366 31.5175 67.5012 33.9115 68.6614 36.7123C69.8215 39.5131 70.1251 42.5951 69.5336 45.5685C68.9422 48.5419 67.4823 51.2731 65.3386 53.4167C63.195 55.5604 60.4638 57.0203 57.4904 57.6117C54.517 58.2032 51.4351 57.8996 48.6342 56.7395C45.8334 55.5793 43.4394 53.6147 41.7551 51.094C40.0709 48.5733 39.1719 45.6097 39.1719 42.5781C39.1719 38.5128 40.7868 34.6141 43.6614 31.7395C46.536 28.8649 50.4347 27.25 54.5 27.25ZM27.2739 84.9178C27.333 80.4453 29.1505 76.1759 32.3334 73.0332C35.5162 69.8905 39.8084 68.1273 44.2813 68.125H64.7188C69.1917 68.1273 73.4838 69.8905 76.6667 73.0332C79.8495 76.1759 81.6671 80.4453 81.7262 84.9178C74.2557 91.6497 64.5562 95.3753 54.5 95.3753C44.4439 95.3753 34.7443 91.6497 27.2739 84.9178Z" fill="#C8C8C8"/>
</svg>
