<svg width="40" height="40" viewBox="0 0 40 40" fill="none" xmlns="http://www.w3.org/2000/svg">
<path d="M29.095 15.0002C29.095 1.28636 10.81 1.28642 10.81 15.0002V17.2858H8.3298C7.44039 17.2858 7.07464 18.4271 7.79839 18.9441L10.81 21.0951C10.3021 22.8729 8.21962 26.733 3.95312 27.952C4.46104 28.7139 5.934 30.2376 7.7625 30.2376L9.28624 32.5232L13.0956 31.7614C14.3654 32.7773 17.5145 34.8089 19.9525 34.8089C22.3905 34.8089 25.5396 32.7773 26.8093 31.7614L30.6187 32.5232L32.1425 30.2376C33.971 30.2376 35.444 28.7139 35.9518 27.952C31.6853 26.733 29.6028 22.8729 29.095 21.0951L32.1065 18.9441C32.8303 18.4271 32.4646 17.2858 31.5752 17.2858H29.095V15.0002Z" stroke="black" stroke-width="3" stroke-linecap="round" stroke-linejoin="round"/>
</svg>
