<svg width="16" height="16" viewBox="0 0 16 16" fill="none" xmlns="http://www.w3.org/2000/svg">
<g opacity="0.5">
<path d="M13.55 1.33437C13.5031 1.34062 12.0469 1.8375 10.3156 2.4375C8.5875 3.03438 6.0125 3.925 4.59375 4.41562L2.01562 5.30625L1.54688 5.31875C1.12187 5.32812 1.0625 5.3375 0.90625 5.40938C0.659375 5.525 0.546875 5.63437 0.43125 5.86875L0.328125 6.07812V7.2875V8.5L0.409375 8.58125C0.478125 8.65 0.534375 8.66875 0.7375 8.6875C1.19063 8.73438 1.52813 8.92188 1.75937 9.25C2.07187 9.7 2.07187 10.3 1.75937 10.75C1.52813 11.0781 1.19063 11.2656 0.7375 11.3125C0.534375 11.3312 0.478125 11.35 0.409375 11.4188L0.328125 11.5V12.7125V13.9219L0.43125 14.1312C0.546875 14.3656 0.65625 14.475 0.90625 14.5906L1.07812 14.6719H8H14.9219L15.0969 14.5906C15.3188 14.4875 15.4875 14.3187 15.5906 14.0969L15.6719 13.9219V12.7125V11.5L15.5906 11.4188C15.525 11.3531 15.4656 11.3312 15.2781 11.3125C15.0125 11.2812 14.8406 11.225 14.6625 11.1125C14.2312 10.8406 13.9688 10.275 14.0563 9.80937C14.1469 9.32188 14.4781 8.91875 14.9187 8.7625C14.9875 8.73438 15.15 8.70312 15.2781 8.6875C15.4656 8.66875 15.525 8.64687 15.5906 8.58125L15.6719 8.5V7.2875V6.07812L15.5688 5.86875C15.3844 5.49062 15.1125 5.34062 14.5906 5.31875L14.2563 5.30625L14.2812 5.21562C14.3844 4.85938 14.6313 4.575 14.9844 4.40625C15.4375 4.19063 15.4375 4.23438 15 2.98438C14.8063 2.43437 14.6156 1.92188 14.5781 1.84375C14.4812 1.65 14.2625 1.45625 14.075 1.39687C13.8969 1.34062 13.6781 1.3125 13.55 1.33437ZM13.8781 2.0625C13.9094 2.08125 13.9594 2.1375 13.9844 2.1875C14.0312 2.275 14.5625 3.76875 14.5625 3.80937C14.5625 3.81875 14.5 3.86875 14.4219 3.91562C14.2125 4.05 13.8906 4.41562 13.7688 4.65625C13.7094 4.775 13.6375 4.97188 13.6062 5.09062L13.55 5.3125L8.85938 5.30937C4.19375 5.30625 4.17188 5.30625 4.34375 5.24687C7.125 4.275 13.6656 2.03438 13.7281 2.03438C13.7781 2.03125 13.8438 2.04688 13.8781 2.0625ZM11.6562 10V14L6.44375 13.9937C2.04375 13.9844 1.225 13.9781 1.16875 13.9406C1.01875 13.8406 1.01562 13.8156 1.00625 12.875L0.996875 11.9844L1.1625 11.9469C1.25313 11.925 1.44687 11.8469 1.59375 11.7781C2.13125 11.5125 2.51875 10.9937 2.64375 10.375C2.77813 9.70625 2.525 8.9625 2.00625 8.5C1.80625 8.32188 1.4125 8.1125 1.16563 8.05625L1 8.01562V7.21875C1 6.78125 1.00938 6.36875 1.01875 6.30625C1.04375 6.16875 1.15938 6.04062 1.275 6.02187C1.32188 6.01562 3.675 6.00625 6.50938 6.00313L11.6562 6V10ZM14.8813 6.10938C14.925 6.15312 14.9688 6.24062 14.9812 6.30625C14.9906 6.36875 15 6.78125 15 7.21875V8.01562L14.8375 8.05625C14.5156 8.12812 14.1625 8.33437 13.9031 8.59375C12.9438 9.55 13.2063 11.1719 14.4187 11.7812C14.5563 11.85 14.7469 11.925 14.8375 11.9469L15.0031 11.9844L14.9938 12.875C14.9844 13.8812 14.9781 13.9062 14.7594 13.9656C14.6875 13.9875 14.1938 14 13.4938 14H12.3438V10.0156V6.03125H13.575H14.8031L14.8813 6.10938Z" fill="white"/>
<path d="M4.42267 8.07483C4.27892 8.21858 4.28204 8.46233 4.42579 8.5967L4.50704 8.6717L5.57267 8.68108C6.16017 8.68733 6.68829 8.68108 6.74767 8.6717C6.91954 8.64045 7.00079 8.53108 7.00079 8.3342C7.00079 8.19358 6.98829 8.14983 6.91954 8.08108L6.83517 7.99983H5.66642H4.49767L4.42267 8.07483Z" fill="white"/>
<path d="M4.4764 9.69375C4.4389 9.7125 4.38577 9.775 4.35452 9.8375C4.28265 9.9875 4.3139 10.15 4.43577 10.2594L4.53265 10.3438L6.85765 10.3375L9.18265 10.3281L9.25452 10.2563C9.3139 10.2 9.3264 10.1531 9.3264 10C9.3264 9.84687 9.3139 9.8 9.25452 9.74375L9.18265 9.67188L6.8639 9.66562C5.26702 9.6625 4.52327 9.66875 4.4764 9.69375Z" fill="white"/>
<path d="M4.52993 11.3344C4.30181 11.4187 4.24243 11.7469 4.42056 11.925L4.49556 12H6.82681H9.16118L9.25181 11.9094C9.41118 11.75 9.36431 11.4531 9.17056 11.3594C9.07993 11.3187 8.78618 11.3125 6.82056 11.3156C5.58618 11.3156 4.55493 11.325 4.52993 11.3344Z" fill="white"/>
</g>
</svg>
