<svg width="40" height="40" viewBox="0 0 40 40" fill="none" xmlns="http://www.w3.org/2000/svg">
<path d="M38.3346 5.00113C36.7386 6.12693 34.9715 6.98798 33.1013 7.55113C32.0975 6.39699 30.7635 5.57895 29.2797 5.20768C27.7959 4.8364 26.2338 4.92979 24.8048 5.47522C23.3757 6.02065 22.1487 6.9918 21.2896 8.25733C20.4305 9.52285 19.9808 11.0217 20.0013 12.5511V14.2178C17.0724 14.2937 14.1701 13.6442 11.553 12.3269C8.93587 11.0096 6.68516 9.06553 5.0013 6.6678C5.0013 6.6678 -1.66536 21.6678 13.3346 28.3345C9.90218 30.6644 5.81323 31.8327 1.66797 31.6678C16.668 40.0011 35.0013 31.6678 35.0013 12.5011C34.9998 12.0369 34.9551 11.5738 34.868 11.1178C36.569 9.44029 37.7693 7.32232 38.3346 5.00113Z" stroke="black" stroke-width="3" stroke-linecap="round" stroke-linejoin="round"/>
</svg>
