<svg width="40" height="40" viewBox="0 0 40 40" fill="none" xmlns="http://www.w3.org/2000/svg">
<path d="M37.565 10.7013C37.367 9.91032 36.9638 9.18559 36.3961 8.60031C35.8284 8.01504 35.1163 7.58994 34.3317 7.36797C31.465 6.66797 19.9983 6.66797 19.9983 6.66797C19.9983 6.66797 8.53168 6.66797 5.66502 7.43464C4.88043 7.65661 4.16831 8.0817 3.60059 8.66698C3.03288 9.25226 2.62966 9.97699 2.43168 10.768C1.90704 13.6772 1.65041 16.6285 1.66502 19.5846C1.64631 22.563 1.90296 25.5368 2.43168 28.468C2.64995 29.2344 3.06219 29.9315 3.62859 30.4921C4.19498 31.0527 4.89638 31.4577 5.66502 31.668C8.53168 32.4346 19.9983 32.4346 19.9983 32.4346C19.9983 32.4346 31.465 32.4346 34.3317 31.668C35.1163 31.446 35.8284 31.0209 36.3961 30.4356C36.9638 29.8504 37.367 29.1256 37.565 28.3346C38.0856 25.4473 38.3422 22.5185 38.3317 19.5846C38.3504 16.6062 38.0937 13.6325 37.565 10.7013Z" stroke="black" stroke-width="3" stroke-linecap="round" stroke-linejoin="round"/>
<path d="M16.25 25.0328L25.8333 19.5828L16.25 14.1328V25.0328Z" stroke="black" stroke-width="3" stroke-linecap="round" stroke-linejoin="round"/>
</svg>
